Coordinates
version=1
nRows=15
nColumns=34
inDegrees=no

Units are S.I. units (second, meters, Newtons, ...)
If the header above contains a line with 'inDegrees', this indicates whether rotational values are in degrees (yes) or radians (no).

endheader
time	pelvis_tilt	pelvis_list	pelvis_rotation	pelvis_tx	pelvis_ty	pelvis_tz	hip_flexion_r	hip_adduction_r	hip_rotation_r	knee_angle_r	ankle_angle_r	subtalar_angle_r	mtp_angle_r	hip_flexion_l	hip_adduction_l	hip_rotation_l	knee_angle_l	ankle_angle_l	subtalar_angle_l	mtp_angle_l	lumbar_extension	lumbar_bending	lumbar_rotation	arm_flex_r	arm_add_r	arm_rot_r	elbow_flex_r	pro_sup_r	arm_flex_l	arm_add_l	arm_rot_l	elbow_flex_l	pro_sup_l
1.32	-0.426613	-0.0888809	0.0229508	-0.473711	1.25796	-0.59844	0.775028	-0.0125493	-0.132451	0.220414	-0.425507	0.122555	-0.129736	0.767275	-0.165668	-0.111483	0.255919	-0.356522	0.199515	-0.129736	-0.332744	0.0667719	0.0282874	-0.893835	-0.320414	-0.171395	0.927738	1.85556	-0.848454	-0.38037	-0.159398	1.14731	1.81128
1.33	-0.430621	-0.0881609	0.0220017	-0.465518	1.23761	-0.598153	0.795792	-0.015043	-0.136129	0.228888	-0.432083	0.137501	-0.129736	0.787938	-0.167902	-0.11494	0.260836	-0.375167	0.202288	-0.129736	-0.338933	0.0640163	0.032162	-0.913513	-0.316494	-0.151842	0.928782	1.87997	-0.855813	-0.379783	-0.145446	1.15303	1.79869
1.34	-0.433788	-0.0875496	0.0215488	-0.457241	1.21623	-0.598015	0.817553	-0.0183103	-0.139717	0.244365	-0.429339	0.148799	-0.129736	0.809746	-0.170081	-0.117761	0.27213	-0.384882	0.207667	-0.129736	-0.34566	0.0616277	0.0353826	-0.933058	-0.312854	-0.131061	0.935785	1.88018	-0.862764	-0.377609	-0.133848	1.16328	1.76733
1.35	-0.435709	-0.087547	0.0210836	-0.448948	1.19385	-0.597898	0.839951	-0.0213211	-0.142025	0.266363	-0.422561	0.146291	-0.129736	0.8326	-0.173234	-0.120052	0.290416	-0.385476	0.217157	-0.129736	-0.353505	0.060212	0.0387669	-0.952698	-0.309127	-0.113938	0.94257	1.9148	-0.869609	-0.374474	-0.12635	1.17451	1.74519
1.36	-0.436247	-0.0879373	0.0200284	-0.440624	1.17053	-0.597685	0.862946	-0.0234909	-0.142756	0.29442	-0.41988	0.129276	-0.129736	0.856106	-0.177736	-0.122635	0.31533	-0.382254	0.228272	-0.129736	-0.362623	0.0591162	0.0429711	-0.972203	-0.305464	-0.0934404	0.956033	1.90655	-0.876379	-0.371108	-0.121743	1.18475	1.74263
1.37	-0.435287	-0.0878603	0.0187138	-0.432254	1.14631	-0.597398	0.886738	-0.0257279	-0.142804	0.329223	-0.42374	0.104091	-0.129736	0.879886	-0.182641	-0.12597	0.346583	-0.379016	0.237048	-0.129736	-0.373115	0.0575696	0.0473228	-0.99068	-0.300724	-0.0756252	0.967616	1.92883	-0.882646	-0.367598	-0.119212	1.19375	1.75434
1.38	-0.432679	-0.0870668	0.0177597	-0.423814	1.12122	-0.597133	0.911171	-0.0290783	-0.143569	0.371601	-0.427136	0.0772185	-0.129736	0.903874	-0.187359	-0.129951	0.384366	-0.373859	0.242536	-0.129736	-0.385106	0.0555426	0.050986	-1.00771	-0.295065	-0.058083	0.979631	1.94653	-0.888297	-0.363535	-0.119194	1.2016	1.77645
1.39	-0.427987	-0.0861889	0.0172876	-0.415214	1.09528	-0.596968	0.934661	-0.0335724	-0.14593	0.418886	-0.427855	0.052572	-0.129736	0.927241	-0.19237	-0.134621	0.426578	-0.370541	0.244538	-0.129736	-0.398994	0.0536692	0.0541888	-1.02327	-0.288926	-0.0408883	0.991745	1.94706	-0.892954	-0.35854	-0.121661	1.20575	1.82305
1.4	-0.421653	-0.0856881	0.0173172	-0.406369	1.06853	-0.596968	0.955821	-0.0390844	-0.149426	0.464802	-0.437161	0.0343882	-0.129736	0.949392	-0.197644	-0.13991	0.469351	-0.379979	0.238782	-0.129736	-0.414151	0.0522814	0.0574957	-1.03717	-0.282172	-0.0258064	1.00187	1.93782	-0.896069	-0.353289	-0.12025	1.21401	1.83511
1.41	-0.416222	-0.08584	0.0180914	-0.397384	1.04068	-0.597131	0.977197	-0.0456851	-0.153115	0.510776	-0.445043	0.0289504	-0.129736	0.974158	-0.203309	-0.145238	0.519303	-0.380521	0.226301	-0.129736	-0.427445	0.0514702	0.0608266	-1.0491	-0.274394	-0.0133307	1.00878	1.92472	-0.897825	-0.347645	-0.117232	1.22226	1.83894
1.42	-0.413894	-0.0871238	0.0197475	-0.388514	1.01127	-0.59728	1.00445	-0.0533489	-0.157561	0.576076	-0.389159	0.0364009	-0.129736	1.00819	-0.21169	-0.149749	0.597998	-0.3022	0.220687	-0.129736	-0.436139	0.051886	0.0638275	-1.05963	-0.265222	-0.00447527	1.01254	1.92009	-0.899494	-0.341789	-0.115548	1.22987	1.84481
1.43	-0.407225	-0.09196	0.0211898	-0.379464	0.982131	-0.596887	1.01102	-0.0551805	-0.145316	0.57681	-0.187802	-0.0552135	-0.129736	1.01813	-0.22583	-0.128973	0.572485	0.0415753	0.228	-0.129736	-0.450764	0.0553069	0.0690098	-1.06441	-0.255074	0.00393848	1.01534	1.89869	-0.896489	-0.335887	-0.115173	1.23422	1.85632
1.44	-0.40825	-0.0896196	0.0269485	-0.371653	0.950352	-0.596802	1.06651	-0.0731338	-0.166071	0.778372	-0.0799502	-0.0149443	-0.129736	1.08414	-0.239057	-0.156103	0.829245	0.0898515	0.225115	-0.129736	-0.455556	0.0534936	0.0658082	-1.06924	-0.244085	0.0110436	1.01795	1.89009	-0.896367	-0.331605	-0.116285	1.24186	1.86175
1.45	-0.410794	-0.0906008	0.0282981	-0.365098	0.920306	-0.596808	1.10952	-0.0843873	-0.17282	0.894107	0.130819	-0.0164515	-0.129736	1.1286	-0.253536	-0.154227	0.935639	0.241982	0.187922	-0.129736	-0.464194	0.0546458	0.0688498	-1.06344	-0.235023	0.0182717	1.01456	1.8932	-0.882941	-0.325675	-0.112958	1.24138	1.86685
1.46	-0.420243	-0.0899612	0.0267324	-0.360044	0.892134	-0.596808	1.15844	-0.0940772	-0.186833	0.980257	0.23944	-0.115749	-0.129736	1.17652	-0.26798	-0.170242	1.02022	0.348224	0.0930024	-0.129736	-0.471157	0.0530043	0.0736992	-1.04309	-0.227516	0.0302743	1.00221	1.89802	-0.856196	-0.318879	-0.109163	1.23297	1.86586
